<?xml version="1.0"?>
<svg xmlns="http://www.w3.org/2000/svg" height="512px" viewBox="0 0 256 256" width="512px" class=""><g><path d="m37.731 206h32.827v42h-32.827z" fill="#f9cfcf" data-original="#F9CFCF" class=""/><path d="m70.558 250h-32.827a2 2 0 0 1 -2-2v-42a2 2 0 0 1 2-2h32.827a2 2 0 0 1 2 2v42a2 2 0 0 1 -2 2zm-30.827-4h28.827v-38h-28.827z" fill="#3762cc" data-original="#3762CC" class="" style="fill:#000000" data-old_color="#3762cc"/><path d="m70.558 213.5h135v34.5h-135z" fill="#f9cfcf" data-original="#F9CFCF" class=""/><path d="m205.558 216.255a14.745 14.745 0 0 0 0 29.49zm-10.744 14.745a10.762 10.762 0 0 1 8.744-10.559v2.146a8.645 8.645 0 0 0 0 16.826v2.146a10.762 10.762 0 0 1 -8.744-10.559zm8.744 4.2a4.656 4.656 0 0 1 0-8.408z" fill="#4671c6" data-original="#4671C6" class="" style="fill:#374957" data-old_color="#4671c6"/><path d="m70.558 216.255v29.49a14.745 14.745 0 0 0 0-29.49zm2 10.541a4.656 4.656 0 0 1 0 8.408zm0 14.763v-2.146a8.645 8.645 0 0 0 0-16.826v-2.146a10.747 10.747 0 0 1 0 21.118z" fill="#4671c6" data-original="#4671C6" class="" style="fill:#374957" data-old_color="#4671c6"/><path d="m205.558 250h-135a2 2 0 0 1 -2-2v-34.5a2 2 0 0 1 2-2h135a2 2 0 0 1 2 2v34.5a2 2 0 0 1 -2 2zm-133-4h131v-30.5h-131z" fill="#3762cc" data-original="#3762CC" class="" style="fill:#000000" data-old_color="#3762cc"/><path d="m130.88 78.586h90.92a16.271 16.271 0 0 1 16.271 16.271 16.271 16.271 0 0 1 -16.271 16.271h-74.649a16.271 16.271 0 0 1 -16.271-16.271v-16.271a0 0 0 0 1 0 0z" fill="#e0ebfc" data-original="#E0EBFC" class="" style="fill:#C12020" data-old_color="#e0ebfc"/><path d="m221.805 113.127h-74.654a18.291 18.291 0 0 1 -18.271-18.27v-16.271a2 2 0 0 1 2-2h90.925a18.271 18.271 0 0 1 0 36.541zm-88.925-32.541v14.271a14.286 14.286 0 0 0 14.271 14.27h74.654a14.271 14.271 0 0 0 0-28.541z" fill="#3762cc" data-original="#3762CC" class="" style="fill:#000000" data-old_color="#3762cc"/><path d="m74.89 67.1h126.337a0 0 0 0 1 0 0v20.419a63.169 63.169 0 0 1 -63.169 63.169 63.169 63.169 0 0 1 -63.168-63.169v-20.419a0 0 0 0 1 0 0z" fill="#4671c6" data-original="#4671C6" class="" style="fill:#374957" data-old_color="#4671c6"/><path d="m138.058 152.688a65.242 65.242 0 0 1 -65.168-65.169v-20.419a2 2 0 0 1 2-2h126.337a2 2 0 0 1 2 2v20.419a65.243 65.243 0 0 1 -65.169 65.169zm-61.168-83.588v18.419a61.169 61.169 0 1 0 122.337 0v-18.419z" fill="#3762cc" data-original="#3762CC" class="" style="fill:#000000" data-old_color="#3762cc"/><path d="m205.558 213.5v-20.234a25 25 0 0 0 -25-25h-85a25 25 0 0 0 -25 25v20.234z" fill="#4671c6" data-original="#4671C6" class="" style="fill:#374957" data-old_color="#4671c6"/><path d="m138.058 164.653a53.908 53.908 0 0 1 -25-6.108v11.724a24.973 24.973 0 0 0 24.974 24.973 24.973 24.973 0 0 0 24.974-24.973v-11.7a53.9 53.9 0 0 1 -24.948 6.084z" fill="#f9cfcf" data-original="#F9CFCF" class=""/><path d="m191.859 91.071v-5.037c0-29.446-24.087-53.317-53.8-53.317-29.713 0-53.8 23.871-53.8 53.317v5.037a16.269 16.269 0 1 0 1.421 32.419 53.908 53.908 0 0 0 104.76 0 16.269 16.269 0 1 0 1.421-32.419z" fill="#f9cfcf" data-original="#F9CFCF" class=""/><g fill="#3762cc"><path d="m138.051 139.045a19.734 19.734 0 0 1 -5.806-.781 17.317 17.317 0 0 1 -7.273-4.244 2 2 0 1 1 2.84-2.817 13.313 13.313 0 0 0 5.6 3.234 18.028 18.028 0 0 0 9.285 0 13.313 13.313 0 0 0 5.6-3.234 2 2 0 1 1 2.84 2.817 17.317 17.317 0 0 1 -7.273 4.244 19.746 19.746 0 0 1 -5.813.781z" data-original="#3762CC" class="" style="fill:#000000" data-old_color="#3762CC"/><rect height="20.854" rx="6.8" width="13.6" x="159.19" y="97.546" data-original="#3762CC" class="" style="fill:#000000" data-old_color="#3762CC"/><rect height="20.854" rx="6.8" width="13.6" x="103.313" y="97.546" data-original="#3762CC" class="" style="fill:#000000" data-old_color="#3762CC"/><path d="m138.058 166.653a55.45 55.45 0 0 1 -53.916-41.072 18.467 18.467 0 0 1 -12.594-4.729 18.243 18.243 0 0 1 10.709-31.713v-3.1c0-30.5 25.033-55.317 55.8-55.317s55.8 24.815 55.8 55.317v3.1a18.28 18.28 0 0 1 11.278 5.182 18.167 18.167 0 0 1 -.567 26.529 18.513 18.513 0 0 1 -12.595 4.731 55.451 55.451 0 0 1 -53.915 41.072zm-52.378-45.163a2 2 0 0 1 1.945 1.542 51.908 51.908 0 0 0 100.866 0 1.994 1.994 0 0 1 2.157-1.531 14.546 14.546 0 0 0 11.247-3.625 14.167 14.167 0 0 0 .442-20.7 14.371 14.371 0 0 0 -10.437-4.105 1.97 1.97 0 0 1 -1.441-.571 2 2 0 0 1 -.6-1.429v-5.037c0-28.3-23.237-51.317-51.8-51.317s-51.8 23.021-51.8 51.317v5.037a2 2 0 0 1 -2.04 2 14.339 14.339 0 0 0 -10.438 4.106 14.167 14.167 0 0 0 .445 20.7 14.541 14.541 0 0 0 11.242 3.623 1.894 1.894 0 0 1 .212-.01z" data-original="#3762CC" class="" style="fill:#000000" data-old_color="#3762CC"/></g><path d="m133.033 8h10.05a58.144 58.144 0 0 1 58.144 58.144v12.442a0 0 0 0 1 0 0h-126.337a0 0 0 0 1 0 0v-12.442a58.144 58.144 0 0 1 58.143-58.144z" fill="#6bdddd" data-original="#6BDDDD" class="" style="fill:#000000" data-old_color="#6bdddd"/><path d="m122.738 49.873h30.627a7.657 7.657 0 0 1 7.657 7.657v9.57a0 0 0 0 1 0 0h-45.941a0 0 0 0 1 0 0v-9.57a7.657 7.657 0 0 1 7.657-7.657z" fill="#4671c6" data-original="#4671C6" class="" style="fill:#374957" data-old_color="#4671c6"/><path d="m205.558 215.5h-135a2 2 0 0 1 -2-2v-20.234a27.03 27.03 0 0 1 27-27h15.5v-7.721a2 2 0 0 1 2.925-1.774 52.259 52.259 0 0 0 24.073 5.882 51.554 51.554 0 0 0 24.027-5.857 2 2 0 0 1 2.923 1.774v7.7h15.55a27.03 27.03 0 0 1 27 27v20.23a2 2 0 0 1 -1.998 2zm-133-4h131v-18.234a23.026 23.026 0 0 0 -23-23h-17.55a2 2 0 0 1 -2-2v-6.509a56.234 56.234 0 0 1 -45.948-.022v6.531a2 2 0 0 1 -2 2h-17.5a23.026 23.026 0 0 0 -23 23z" fill="#3762cc" data-original="#3762CC" class="" style="fill:#000000" data-old_color="#3762cc"/><path d="m90.898 203h93v45h-93z" fill="#4671c6" data-original="#4671C6" class="" style="fill:#374957" data-old_color="#4671c6"/><path d="m183.9 250h-93a2 2 0 0 1 -2-2v-45a2 2 0 0 1 4 0v43h89v-43a2 2 0 0 1 4 0v45a2 2 0 0 1 -2 2z" fill="#3762cc" data-original="#3762CC" class="" style="fill:#000000" data-old_color="#3762cc"/><path d="m115.081 67.101h45.941v11.485h-45.941z" fill="#e0ebfc" data-original="#E0EBFC" class="" style="fill:#C12020" data-old_color="#e0ebfc"/><path d="m129.551 67.101h17v11.485h-17z" fill="#6bdddd" data-original="#6BDDDD" class="" style="fill:#000000" data-old_color="#6bdddd"/><path d="m161.022 69.1h-45.941a2 2 0 0 1 -2-2v-9.57a9.668 9.668 0 0 1 9.657-9.657h30.627a9.668 9.668 0 0 1 9.657 9.657v9.57a2 2 0 0 1 -2 2zm-43.941-4h41.941v-7.57a5.664 5.664 0 0 0 -5.657-5.657h-30.627a5.664 5.664 0 0 0 -5.657 5.657z" fill="#3762cc" data-original="#3762CC" class="" style="fill:#000000" data-old_color="#3762cc"/><path d="m201.227 80.586h-126.337a2 2 0 0 1 -2-2v-12.442a60.211 60.211 0 0 1 60.144-60.144h10.049a60.211 60.211 0 0 1 60.144 60.144v12.442a2 2 0 0 1 -2 2zm-124.337-4h122.337v-10.442a56.207 56.207 0 0 0 -56.144-56.144h-10.049a56.207 56.207 0 0 0 -56.144 56.144z" fill="#3762cc" data-original="#3762CC" class="" style="fill:#000000" data-old_color="#3762cc"/><path d="m161.022 80.586h-45.941a2 2 0 0 1 -2-2v-11.486a2 2 0 0 1 2-2h45.941a2 2 0 0 1 2 2v11.486a2 2 0 0 1 -2 2zm-43.941-4h41.941v-7.486h-41.941z" fill="#3762cc" data-original="#3762CC" class="" style="fill:#000000" data-old_color="#3762cc"/><path d="m146.551 80.586h-17a2 2 0 0 1 -2-2v-11.486a2 2 0 0 1 2-2h17a2 2 0 0 1 2 2v11.486a2 2 0 0 1 -2 2zm-15-4h13v-7.486h-13z" fill="#3762cc" data-original="#3762CC" class="" style="fill:#000000" data-old_color="#3762cc"/><path d="m24.957 98.958v-13.5a3.121 3.121 0 0 1 3.121-3.122 3.121 3.121 0 0 1 3.122 3.119v13.5z" fill="#e0ebfc" data-original="#E0EBFC" class="" style="fill:#C12020" data-old_color="#e0ebfc"/><path d="m31.2 100.958h-6.243a2 2 0 0 1 -2-2v-13.5a5.121 5.121 0 1 1 10.242 0v13.5a2 2 0 0 1 -1.999 2zm-4.242-4h2.242v-11.5a1.121 1.121 0 1 0 -2.242 0z" fill="#3762cc" data-original="#3762CC" class="" style="fill:#000000" data-old_color="#3762cc"/><path d="m22.365 104.387h11.428v12.816h-11.428z" fill="#e0ebfc" transform="matrix(0 -1 1 0 -82.716 138.873)" data-original="#E0EBFC" class="" style="fill:#C12020" data-old_color="#e0ebfc"/><path d="m34.486 118.509h-12.816a2 2 0 0 1 -2-2v-11.428a2 2 0 0 1 2-2h12.816a2 2 0 0 1 2 2v11.428a2 2 0 0 1 -2 2zm-10.816-4h8.816v-7.428h-8.816z" fill="#3762cc" data-original="#3762CC" class="" style="fill:#000000" data-old_color="#3762cc"/><path d="m16.66 156.053h22.738v6.34h-22.738z" fill="#e0ebfc" transform="matrix(0 -1 1 0 -131.194 187.252)" data-original="#E0EBFC" class="" style="fill:#C12020" data-old_color="#e0ebfc"/><path d="m31.2 172.592h-6.34a2 2 0 0 1 -2-2v-22.738a2 2 0 0 1 2-2h6.34a2 2 0 0 1 2 2v22.738a2 2 0 0 1 -2 2zm-4.34-4h2.34v-18.738h-2.34z" fill="#3762cc" data-original="#3762CC" class="" style="fill:#000000" data-old_color="#3762cc"/><path d="m32.14 174.822h-7.281v37.546a1.92 1.92 0 0 0 1.919 1.92h5.362z" fill="#6bdddd" data-original="#6BDDDD" class="" style="fill:#000000" data-old_color="#6bdddd"/><path d="m20.347 157.68h13.543a1.919 1.919 0 0 1 1.92 1.92v14.983a1.919 1.919 0 0 1 -1.92 1.917h-13.543a0 0 0 0 1 0 0v-18.82a0 0 0 0 1 0 0z" fill="#6bdddd" transform="matrix(0 -1 1 0 -139.012 195.169)" data-original="#6BDDDD" class="" style="fill:#000000" data-old_color="#6bdddd"/><path d="m34.963 128.831 2.037-13.41a1.28 1.28 0 0 0 -1.265-1.471h-15.409a1.279 1.279 0 0 0 -1.265 1.471l2.034 13.41-3.17 12.674v9.844a1.28 1.28 0 0 0 1.279 1.28h17.65a1.28 1.28 0 0 0 1.279-1.28v-9.844z" fill="#a4c9ff" data-original="#A4C9FF" class="active-path" style="fill:#202095" data-old_color="#a4c9ff"/><path d="m32.14 216.288h-5.362a3.924 3.924 0 0 1 -3.919-3.92v-37.546a2 2 0 0 1 2-2h7.281a2 2 0 0 1 2 2v39.466a2 2 0 0 1 -2 2zm-5.281-4h3.281v-35.466h-3.281z" fill="#3762cc" data-original="#3762CC" class="" style="fill:#000000" data-old_color="#3762cc"/><path d="m37.489 176.822h-18.822a2 2 0 0 1 -2-2v-13.543a3.924 3.924 0 0 1 3.92-3.919h14.983a3.923 3.923 0 0 1 3.919 3.919v13.543a2 2 0 0 1 -2 2zm-16.822-4h14.822v-11.462h-14.822z" fill="#3762cc" data-original="#3762CC" class="" style="fill:#000000" data-old_color="#3762cc"/><path d="m36.854 154.629h-17.654a3.283 3.283 0 0 1 -3.279-3.279v-9.845a2.025 2.025 0 0 1 .059-.485l3.073-12.285-1.974-13.014a3.281 3.281 0 0 1 3.243-3.771h15.41a3.281 3.281 0 0 1 3.243 3.77l-1.975 13.015 3.073 12.285a2.025 2.025 0 0 1 .059.485v9.845a3.283 3.283 0 0 1 -3.278 3.279zm-16.929-4h16.208v-8.878l-3.11-12.435a2 2 0 0 1 -.037-.785l1.908-12.581h-13.73l1.908 12.581a2 2 0 0 1 -.037.785l-3.11 12.435z" fill="#3762cc" data-original="#3762CC" class="" style="fill:#000000" data-old_color="#3762cc"/><path d="m18.668 180.555a2.558 2.558 0 0 0 1.6 2.372l11.874 4.81v34.909a2.559 2.559 0 0 0 2.559 2.559h19.051a2.559 2.559 0 0 0 2.559-2.559v-45.829a2.56 2.56 0 0 0 -1.935-2.482l-35.708-8.972z" fill="#4671c6" data-original="#4671C6" class="" style="fill:#374957" data-old_color="#4671c6"/><path d="m53.752 227.205h-19.052a4.565 4.565 0 0 1 -4.559-4.559v-33.561l-10.625-4.3a4.541 4.541 0 0 1 -2.848-4.225v-15.197a2 2 0 0 1 2.488-1.94l35.707 8.977a4.552 4.552 0 0 1 3.448 4.421v45.829a4.564 4.564 0 0 1 -4.559 4.555zm-33.085-59.277v12.628a.557.557 0 0 0 .35.517l11.874 4.811a2 2 0 0 1 1.249 1.853v34.909a.56.56 0 0 0 .559.559h19.053a.56.56 0 0 0 .559-.559v-45.829a.557.557 0 0 0 -.422-.542z" fill="#3762cc" data-original="#3762CC" class="" style="fill:#000000" data-old_color="#3762cc"/><path d="m31.151 96.958h-3.072-.05-3.072l-3.286 8.123h6.358.05 6.358z" fill="#a4c9ff" data-original="#A4C9FF" class="active-path" style="fill:#202095" data-old_color="#a4c9ff"/><path d="m34.437 107.081h-12.767a2 2 0 0 1 -1.854-2.75l3.284-8.123a2 2 0 0 1 1.854-1.25h6.194a2 2 0 0 1 1.854 1.25l3.286 8.123a2 2 0 0 1 -1.854 2.75zm-9.8-4h6.833l-1.67-4.123h-3.5z" fill="#3762cc" data-original="#3762CC" class="" style="fill:#000000" data-old_color="#3762cc"/><rect fill="#f9cfcf" height="44.016" rx="6" transform="matrix(0 -1 1 0 -133.514 241.803)" width="51.683" x="28.303" y="165.65" data-original="#F9CFCF" class=""/><path d="m70.153 215.5h-32.016a8.009 8.009 0 0 1 -8-8v-39.683a8.009 8.009 0 0 1 8-8h32.016a8.009 8.009 0 0 1 8 8v39.683a8.009 8.009 0 0 1 -8 8zm-32.016-51.683a4 4 0 0 0 -4 4v39.683a4 4 0 0 0 4 4h32.016a4 4 0 0 0 4-4v-39.683a4 4 0 0 0 -4-4z" fill="#3762cc" data-original="#3762CC" class="" style="fill:#000000" data-old_color="#3762cc"/></g> </svg>
