<svg id="Layer_3" enable-background="new 0 0 64 64" height="512" viewBox="0 0 64 64" width="512" xmlns="http://www.w3.org/2000/svg"><g><path d="m63 50.5c0-1.561-1.034-2.871-2.448-3.321.276-.501.448-1.067.448-1.679 0-1.561-1.034-2.871-2.448-3.321.276-.501.448-1.067.448-1.679 0-1.93-1.57-3.5-3.5-3.5h-7c-.171 0-.335.027-.5.051v-.051h-5c-3.113 0-5.861 1.59-7.478 4h-34.522v2h33.525c-.334.94-.525 1.947-.525 3h2c0-3.86 3.14-7 7-7h2.351c-.218.456-.351.961-.351 1.5 0 .98.407 1.864 1.058 2.5-.651.636-1.058 1.52-1.058 2.5s.407 1.864 1.058 2.5c-.651.636-1.058 1.52-1.058 2.5s.407 1.864 1.058 2.5c-.651.636-1.058 1.52-1.058 2.5 0 .169.016.335.04.5h-.111c-.487-3.388-3.408-6-6.929-6v2c2.757 0 5 2.243 5 5 0 .552.448 1 1 1h6c.552 0 1-.448 1-1v-3.5c0-.827.673-1.5 1.5-1.5s1.5.673 1.5 1.5v4.5c0 1.654-1.346 3-3 3h-8c-3.86 0-7-3.14-7-7h-2c0 1.053.191 2.06.525 3h-33.525v2h34.522c1.617 2.41 4.365 4 7.478 4h8c2.414 0 4.434-1.721 4.899-4h1.601c1.93 0 3.5-1.57 3.5-3.5 0-.612-.172-1.178-.448-1.679 1.414-.45 2.448-1.76 2.448-3.321zm-16-10c0-.827.673-1.5 1.5-1.5h7c.827 0 1.5.673 1.5 1.5s-.673 1.5-1.5 1.5h-7c-.827 0-1.5-.673-1.5-1.5zm0 5c0-.827.673-1.5 1.5-1.5h7 2c.827 0 1.5.673 1.5 1.5s-.673 1.5-1.5 1.5h-9c-.827 0-1.5-.673-1.5-1.5zm.089 10.5c-.056-.159-.089-.326-.089-.5 0-.827.673-1.5 1.5-1.5h.5v2zm10.411 1h-1.5v-3h1.5c.827 0 1.5.673 1.5 1.5s-.673 1.5-1.5 1.5zm2-5h-2-1.851c-.564-1.178-1.758-2-3.149-2s-2.585.822-3.149 2h-.851c-.827 0-1.5-.673-1.5-1.5s.673-1.5 1.5-1.5h9 2c.827 0 1.5.673 1.5 1.5s-.673 1.5-1.5 1.5z"/><path d="m12 37c.125 0 .251-.023.371-.071l2.333-.933c1.896-.759 3.59-1.876 5.035-3.321l2.261-2.261.293.293c.195.195.451.293.707.293s.512-.098.707-.293l3-3 3-3c.391-.391.391-1.023 0-1.414l-.293-.293 1.586-1.586 4.293 4.293c.391.391 1.023.391 1.414 0l1.293-1.293 6.293 6.293c.195.195.451.293.707.293s.512-.098.707-.293l2-2 7-7 3-3c.391-.391.391-1.023 0-1.414l-16-16c-.391-.391-1.023-.391-1.414 0l-3 3c-.391.391-.391 1.023 0 1.414l1.793 1.793-2.586 2.586-.793-.793c-.391-.391-1.023-.391-1.414 0l-2.293 2.293-.293-.293c-.317-.317-.788-.363-1.165-.165l-2.128-2.128.293-.293c.188-.187.293-.442.293-.707v-2c0-.265-.105-.52-.293-.707l-1-1c-.187-.188-.442-.293-.707-.293h-2c-.265 0-.52.105-.707.293l-5 5c-.188.187-.293.442-.293.707v2c0 .265.105.52.293.707l1 1c.187.188.442.293.707.293h2c.265 0 .52-.105.707-.293l.293-.293 2.128 2.128c-.198.377-.152.848.165 1.165l.293.293-1.586 1.586-.293-.293c-.391-.391-1.023-.391-1.414 0l-3 3-3 3c-.391.391-.391 1.023 0 1.414l.293.293-1.47 1.47c-.294.294-.375.741-.204 1.12.059.128.088.266.088.41 0 .551-.449 1-1 1-.1 0-.198-.015-.289-.043-.417-.132-.872.025-1.122.386-.636.92-1.169 1.915-1.585 2.954l-.933 2.332c-.148.371-.061.795.222 1.078.191.191.447.293.707.293zm40.586-16-5.586 5.586-7.586-7.586 5.586-5.586zm-11.586-17.586 14.586 14.586-1.586 1.586-14.586-14.586zm-.5 5.5 3.086 3.086-5.586 5.586-1.586-1.586 2.293-2.293c.391-.391.391-1.023 0-1.414l-.793-.793zm-5.5 2.5 1.586 1.586-1.586 1.586-1.586-1.586zm10.586 16.586-.586.586-6.293-6.293c-.195-.195-.451-.293-.707-.293s-.512.098-.707.293l-1.293 1.293-7.586-7.586 2.586-2.586zm-23-16h-1.172l-.414-.414v-1.172l4.414-4.414h1.172l.414.414v1.172zm4.414-1.586 2.086 2.086-1.586 1.586-2.086-2.086zm1 8 1.586 1.586-1.586 1.586-1.586-1.586zm-4 2 3.586 3.586-1.586 1.586-3.586-3.586zm-3 3 3.586 3.586-1.586 1.586-3.586-3.586zm-7.139 10.626c.284-.709.631-1.394 1.034-2.042 1.684.065 3.105-1.309 3.105-2.998 0-.183-.016-.362-.048-.538l1.048-1.048 1.586 1.586-2.261 2.261c-1.252 1.252-2.72 2.22-4.364 2.877l-.166.066z"/><path d="m20.553 54.895c.14.07.294.105.447.105s.307-.035.447-.105l8-4c.339-.17.553-.516.553-.895s-.214-.725-.553-.895l-8-4c-.281-.141-.613-.141-.895 0l-8 4c-.338.17-.552.516-.552.895s.214.725.553.895zm.447-7.777 5.764 2.882-5.764 2.882-5.764-2.882z"/><path d="m8 49h2v2h-2z"/></g></svg>